<svg width="62" height="61" viewBox="0 0 62 61" xmlns="http://www.w3.org/2000/svg" xmlns:xlink="http://www.w3.org/1999/xlink"><title>Group Copy 13</title><defs><radialGradient fx="50%" fy="50%" r="53.724%" id="c"><stop stop-color="#D4D9E2" offset="0%"/><stop stop-color="#FFF" offset="100%"/></radialGradient><path d="M27.083 52.778c14.498 0 26.25-11.63 26.25-25.977 0-14.346-11.752-25.976-26.25-25.976C12.586.825.833 12.455.833 26.8c0 14.347 11.753 25.977 26.25 25.977zM12.5 26.8c0-7.97 6.53-14.431 14.583-14.431 8.054 0 14.584 6.461 14.584 14.431 0 7.97-6.53 14.432-14.584 14.432C19.03 41.233 12.5 34.77 12.5 26.8z" id="a"/><filter x="-50%" y="-50%" width="200%" height="200%" filterUnits="objectBoundingBox" id="b"><feMorphology radius="2" operator="dilate" in="SourceAlpha" result="shadowSpreadOuter1"/><feOffset dy="2" in="shadowSpreadOuter1" result="shadowOffsetOuter1"/><feGaussianBlur stdDeviation="1.5" in="shadowOffsetOuter1" result="shadowBlurOuter1"/><feComposite in="shadowBlurOuter1" in2="SourceAlpha" operator="out" result="shadowBlurOuter1"/><feColorMatrix values="0 0 0 0 0 0 0 0 0 0 0 0 0 0 0 0 0 0 0.2 0" in="shadowBlurOuter1"/></filter><mask id="d" x="-2" y="-2" width="56.5" height="55.953"><path fill="#fff" d="M-1.167-1.175h56.5v55.953h-56.5z"/><use xlink:href="#a"/></mask><linearGradient x1="62.644%" y1="40.91%" x2="62.644%" y2="111.331%" id="e"><stop stop-color="#F4734D" offset="0%"/><stop stop-color="#E34523" offset="100%"/></linearGradient><linearGradient x1="36.189%" y1="50%" x2="36.189%" y2="130.643%" id="f"><stop stop-color="#F4734D" offset="0%"/><stop stop-color="#E34523" offset="100%"/></linearGradient><linearGradient x1="36.189%" y1="50%" x2="36.189%" y2="115.252%" id="g"><stop stop-color="#F4734D" offset="0%"/><stop stop-color="#E34523" offset="100%"/></linearGradient><linearGradient x1="36.189%" y1="50%" x2="114.458%" y2="50%" id="h"><stop stop-color="#F4734D" offset="0%"/><stop stop-color="#E34523" offset="100%"/></linearGradient></defs><g fill="none" fill-rule="evenodd"><path d="M43.167 3.469C49.93.959 59.02 6.92 55.849 16.019M19 4.293c-6.763-2.51-15.853 3.452-12.683 12.55M43.167 53.377c6.763 2.51 15.853-3.452 12.682-12.55M19 53.377c-6.763 2.51-15.853-3.452-12.683-12.55" stroke="#B8B8C4" stroke-width="1.667" stroke-linecap="round" stroke-linejoin="round"/><g transform="translate(4 2)"><use fill="#000" filter="url(#b)" xlink:href="#a"/><use fill="url(#c)" xlink:href="#a"/><use fill="#F5F7FC" xlink:href="#a"/><use stroke="#DDE4F2" mask="url(#d)" stroke-width="4" xlink:href="#a"/></g><path d="M5.667 36.635l11.666-.824M38.888 53.511l-1.443-11.486M55.552 20.992l-11.437 2.424M22.776 5l2.448 11.318" stroke="#979797" stroke-width="2.5" stroke-linecap="round" opacity=".206"/><path d="M18.828 10.62a22.02 22.02 0 0 0-7.616 8.638m.94 20.8a22.104 22.104 0 0 0 11.678 9.39M43.313 47a21.97 21.97 0 0 0 8.386-10.348m-2.057-19.7a22.087 22.087 0 0 0-6.541-6.488" stroke="#FFF" stroke-width="1.667" stroke-linecap="round" opacity=".752"/><path d="M20.214 1.645C20.096.737 20.742 0 21.667 0H32.5c.92 0 1.57.736 1.453 1.645l-1.612 12.38a.967.967 0 0 1-.95.819h-8.616c-.466 0-.89-.367-.95-.82l-1.61-12.379z" stroke="#EE6548" stroke-width="2" fill="url(#e)" transform="translate(4 2)"/><path d="M20.214 41.229c-.118-.91.528-1.646 1.453-1.646H32.5c.92 0 1.57.736 1.453 1.646L32.34 53.608a.967.967 0 0 1-.95.82h-8.616c-.466 0-.89-.368-.95-.82l-1.61-12.38z" stroke="#EE6548" stroke-width="2" fill="url(#f)" transform="matrix(1 0 0 -1 4 96.01)"/><path d="M40.214 21.437c-.118-.909.528-1.645 1.453-1.645H52.5c.92 0 1.57.736 1.453 1.645l-1.612 12.38a.967.967 0 0 1-.95.818h-8.616c-.466 0-.89-.366-.95-.819l-1.61-12.379z" stroke="#EE6548" stroke-width="2" fill="url(#g)" transform="matrix(0 -1 -1 0 78.297 76.297)"/><path d="M1.723 33.67c-.908.119-1.645-.527-1.645-1.452V21.385c0-.92.736-1.571 1.645-1.453l12.38 1.611c.452.059.819.473.819.95v8.617c0 .465-.367.89-.82.95L1.724 33.67z" stroke="#EE6548" stroke-width="2" fill="url(#h)" transform="translate(4 2)"/><path d="M27.75 5.299h6.667M27.75 53.128h6.667M7.333 25.503V32.1M54.833 25.503V32.1" stroke="#FFA587" stroke-width="1.667" stroke-linecap="round"/></g></svg>